<svg width="20" height="20" viewBox="0 0 20 20" fill="none" xmlns="http://www.w3.org/2000/svg">
    <g clip-path="url(#clip0)">
        <path d="M1.08899 14.4876C0.947494 14.174 0.796098 13.8642 0.666916 13.5456C0.466745 13.0528 0.321385 12.543 0.212486 12.0235C0.126043 11.6114 0.0630214 11.1958 0.0342875 10.7759C0.025112 10.6406 0.0183511 10.5052 0.0101414 10.3698C0.00965845 10.3613 0.00362192 10.353 0 10.3445C0 10.1118 0 9.87914 0 9.64671C0.00676092 9.56577 0.0149706 9.48459 0.0202828 9.40364C0.0543288 8.86542 0.131113 8.33312 0.251361 7.80673C0.370643 7.28508 0.529766 6.77526 0.73525 6.28059C0.842942 6.02166 0.969709 5.77053 1.08802 5.51562C1.38068 5.73811 1.67333 5.96059 1.96598 6.18307C2.43417 6.53905 2.90236 6.89526 3.37056 7.25123C3.73758 7.53028 4.1046 7.80933 4.47162 8.08815C4.40788 8.32152 4.3364 8.553 4.28256 8.7885C4.20746 9.11725 4.17245 9.45145 4.15917 9.78849C4.13672 10.3646 4.20239 10.931 4.3463 11.4891C4.38349 11.6334 4.43082 11.7755 4.47331 11.9184C4.11498 12.1908 3.75641 12.4633 3.39809 12.7357C2.92072 13.0985 2.44335 13.4614 1.96574 13.824C1.67381 14.0453 1.38116 14.2663 1.08899 14.4876Z" fill="#FABB05"/>
        <path d="M4.47149 8.08832C4.10447 7.80927 3.73745 7.53046 3.37042 7.25141C2.90223 6.89544 2.43404 6.53923 1.96584 6.18325C1.67319 5.96077 1.38054 5.73829 1.08789 5.51581C1.20597 5.30232 1.3139 5.08291 1.44453 4.87723C1.6249 4.59274 1.81348 4.31227 2.01534 4.04221C2.19354 3.80364 2.38744 3.575 2.58761 3.3537C2.78198 3.13879 2.98626 2.93146 3.19826 2.73335C3.74952 2.21856 4.3551 1.7736 5.0114 1.39396C5.36441 1.1897 5.72757 1.00532 6.10256 0.844379C6.61253 0.625447 7.13698 0.447461 7.67713 0.313261C8.13446 0.199653 8.59686 0.117287 9.06553 0.0642698C9.62765 0.000601852 10.1917 -0.011469 10.756 0.0107792C11.4908 0.0398913 12.2127 0.15421 12.9222 0.34616C13.5248 0.509235 14.1065 0.725801 14.6665 0.997987C15.2552 1.28437 15.8129 1.61999 16.3277 2.02141C16.566 2.2072 16.7971 2.40176 17.0272 2.58874C16.0505 3.54612 15.0818 4.4957 14.1128 5.44575C13.9766 5.33403 13.837 5.21285 13.6907 5.10043C13.2679 4.77522 12.8043 4.51984 12.3033 4.32813C11.5528 4.04103 10.7746 3.92861 9.97198 3.96269C9.36519 3.98849 8.7753 4.1002 8.20472 4.30351C7.55229 4.53594 6.95999 4.8725 6.42419 5.30468C5.88693 5.73805 5.43902 6.24858 5.07418 6.82822C4.83175 7.21354 4.63761 7.62182 4.48815 8.05045C4.48308 8.06347 4.47704 8.07578 4.47149 8.08832Z" fill="#E94436"/>
        <path d="M1.08984 14.4877C1.38201 14.2664 1.67466 14.0455 1.96659 13.824C2.4442 13.4614 2.92157 13.0986 3.39894 12.7357C3.75727 12.4633 4.11584 12.1909 4.47417 11.9185C4.592 12.1909 4.70259 12.4666 4.83008 12.7345C4.91387 12.9102 5.01576 13.0784 5.12056 13.2434C5.37796 13.6496 5.68389 14.019 6.03304 14.3527C6.38509 14.6893 6.77143 14.9835 7.19568 15.2294C7.62017 15.4756 8.06783 15.6694 8.54013 15.8072C8.97066 15.9326 9.41084 16.0067 9.85948 16.0334C10.2272 16.0554 10.5945 16.0429 10.9603 16.0074C11.5649 15.9489 12.1529 15.8162 12.7162 15.5904C13.0378 15.4614 13.3462 15.3059 13.6345 15.1144C13.6495 15.1045 13.6656 15.0966 13.6811 15.0877C13.7151 15.1151 13.7482 15.1433 13.783 15.1698C14.0773 15.3934 14.3719 15.6166 14.6662 15.8403C14.9999 16.094 15.3336 16.348 15.6671 16.602C15.9296 16.8017 16.1916 17.0022 16.4543 17.2017C16.6235 17.3302 16.7938 17.4571 16.9638 17.5847C16.7621 17.7525 16.5661 17.9271 16.3579 18.0867C15.8808 18.4526 15.3648 18.7596 14.8198 19.0185C14.2949 19.268 13.7499 19.4665 13.1873 19.6192C12.6981 19.752 12.2014 19.8485 11.698 19.9108C11.2677 19.964 10.8352 19.9932 10.4011 19.9988C9.98286 20.0045 9.56562 19.9903 9.14982 19.9477C8.61016 19.8923 8.07798 19.7953 7.55352 19.6571C7.03366 19.5198 6.52731 19.3451 6.0369 19.1285C5.45595 18.872 4.90204 18.5681 4.37903 18.2097C4.05547 17.988 3.74519 17.7503 3.44892 17.4954C3.11667 17.2093 2.80615 16.9014 2.51591 16.5743C2.13996 16.1501 1.79684 15.7021 1.50419 15.2188C1.35907 14.979 1.22748 14.7314 1.08984 14.4877Z" fill="#34A753"/>
        <path d="M16.9626 17.5846C16.7929 17.4571 16.6224 17.33 16.4532 17.2017C16.1904 17.0024 15.9285 16.8019 15.666 16.6019C15.3325 16.348 14.9988 16.094 14.6651 15.8403C14.3708 15.6166 14.0762 15.3934 13.7819 15.1697C13.7471 15.1432 13.7138 15.1151 13.68 15.0876C13.8661 14.9444 14.0593 14.8093 14.2365 14.6564C14.5698 14.369 14.8489 14.0348 15.0819 13.6642C15.3849 13.1825 15.5916 12.664 15.7017 12.1085C15.7051 12.0912 15.7078 12.0739 15.7119 12.0491C13.8756 12.0491 12.0431 12.0491 10.207 12.0491C10.207 10.762 10.207 9.48176 10.207 8.19775C13.411 8.19775 16.6135 8.19775 19.823 8.19775C19.8392 8.29834 19.8607 8.39988 19.8713 8.5026C19.9131 8.90946 19.9611 9.31585 19.9879 9.72365C20.0063 10.0003 19.9983 10.2791 19.9932 10.5568C19.9833 11.1007 19.9302 11.641 19.8389 12.1774C19.7189 12.8817 19.5323 13.5683 19.2684 14.2348C19.131 14.5818 18.9745 14.92 18.7968 15.2481C18.5372 15.7267 18.2361 16.1792 17.8918 16.6043C17.6139 16.9472 17.312 17.2675 16.9858 17.5662C16.9788 17.573 16.9704 17.5785 16.9626 17.5846Z" fill="#4185F3"/>
    </g>
    <defs>
        <clipPath id="clip0">
            <rect width="20" height="20" fill="white"/>
        </clipPath>
    </defs>
</svg>
